<svg version="1.1" id="Layer_1" xmlns="http://www.w3.org/2000/svg" xmlns:xlink="http://www.w3.org/1999/xlink" x="0px" y="0px"
	 width="100%" viewBox="0 0 512 512" enable-background="new 0 0 512 512" xml:space="preserve">
<path fill="#000000" opacity="1.000000" stroke="none" 
	d="
M308.000000,513.000000 
	C205.358261,513.000000 103.216515,513.000000 1.037387,513.000000 
	C1.037387,342.399902 1.037387,171.799789 1.037387,1.099841 
	C171.558426,1.099841 342.116913,1.099841 512.837708,1.099841 
	C512.837708,171.666534 512.837708,342.333252 512.837708,513.000000 
	C444.799774,513.000000 376.649872,513.000000 308.000000,513.000000 
M388.498840,434.001160 
	C396.982330,442.484772 405.828064,450.640778 413.865967,459.527435 
	C426.497620,473.492920 445.718567,473.867310 461.090851,464.231354 
	C463.154419,462.937866 464.847534,460.667175 466.069824,458.488647 
	C470.116608,451.275970 470.845032,443.516022 470.134125,435.286133 
	C469.344727,426.147827 466.261597,418.475647 459.624969,412.069336 
	C444.912750,397.867859 430.340546,383.521179 415.724152,369.220520 
	C399.559418,353.404999 383.441772,337.541199 367.228729,321.775421 
	C363.326324,317.980682 359.128479,314.489746 355.275696,311.046051 
	C402.824677,243.307953 395.497040,140.572861 321.193359,80.702881 
	C261.308075,32.450493 167.098495,25.211678 97.623772,89.252151 
	C37.340748,144.819870 23.700907,235.793411 71.566322,308.569733 
	C97.377029,347.813324 134.158615,373.064026 180.935745,381.943542 
	C227.456009,390.774292 270.853638,382.802094 310.386108,355.884613 
	C336.395538,381.895355 362.197144,407.698273 388.498840,434.001160 
z"/>
<path fill="#727272" opacity="1.000000" stroke="none" 
	d="
M388.248810,433.751190 
	C362.197144,407.698273 336.395538,381.895355 310.386108,355.884613 
	C270.853638,382.802094 227.456009,390.774292 180.935745,381.943542 
	C134.158615,373.064026 97.377029,347.813324 71.566322,308.569733 
	C23.700907,235.793411 37.340748,144.819870 97.623772,89.252151 
	C167.098495,25.211678 261.308075,32.450493 321.193359,80.702881 
	C395.497040,140.572861 402.824677,243.307953 355.275696,311.046051 
	C359.128479,314.489746 363.326324,317.980682 367.228729,321.775421 
	C383.441772,337.541199 399.559418,353.404999 415.724152,369.220520 
	C430.340546,383.521179 444.912750,397.867859 459.624969,412.069336 
	C466.261597,418.475647 469.344727,426.147827 470.134125,435.286133 
	C470.845032,443.516022 470.116608,451.275970 466.069824,458.488647 
	C464.847534,460.667175 463.154419,462.937866 461.090851,464.231354 
	C445.718567,473.867310 426.497620,473.492920 413.865967,459.527435 
	C405.828064,450.640778 396.982330,442.484772 388.248810,433.751190 
M318.016907,137.536438 
	C312.837341,132.018326 307.826752,126.329117 302.445831,121.014885 
	C287.590118,106.343269 269.588135,97.165131 249.703568,91.386734 
	C232.445328,86.371544 214.831116,85.635773 197.211334,88.204376 
	C180.853912,90.588951 165.309158,96.158180 151.396011,105.089531 
	C142.172989,111.010109 133.209793,117.741745 125.478493,125.460701 
	C118.355728,132.572083 112.390343,141.087494 107.050926,149.689453 
	C95.854759,167.726715 89.826447,187.654449 89.157730,208.881088 
	C88.873611,217.899902 89.716217,227.066559 91.096863,236.003799 
	C94.837212,260.216248 105.555992,281.276825 121.953697,299.337860 
	C131.413681,309.757446 142.254974,318.449371 154.668472,325.479065 
	C172.840729,335.769867 192.276367,341.079895 212.839020,341.768616 
	C222.771332,342.101288 232.897949,340.616302 242.735382,338.840027 
	C256.557892,336.344208 270.208435,332.014801 281.397614,323.539215 
	C293.476166,314.389984 304.761475,303.948639 315.155762,292.906494 
	C322.133453,285.493835 327.990234,276.562683 332.497803,267.400452 
	C338.722748,254.747498 341.641479,240.941879 343.213562,226.752151 
	C345.066589,210.026306 343.036133,193.940033 338.487640,177.970734 
	C334.341187,163.412903 327.025208,150.437302 318.016907,137.536438 
z"/>
<path fill="#000000" opacity="1.000000" stroke="none" 
	d="
M318.264862,137.799500 
	C327.025208,150.437302 334.341187,163.412903 338.487640,177.970734 
	C343.036133,193.940033 345.066589,210.026306 343.213562,226.752151 
	C341.641479,240.941879 338.722748,254.747498 332.497803,267.400452 
	C327.990234,276.562683 322.133453,285.493835 315.155762,292.906494 
	C304.761475,303.948639 293.476166,314.389984 281.397614,323.539215 
	C270.208435,332.014801 256.557892,336.344208 242.735382,338.840027 
	C232.897949,340.616302 222.771332,342.101288 212.839020,341.768616 
	C192.276367,341.079895 172.840729,335.769867 154.668472,325.479065 
	C142.254974,318.449371 131.413681,309.757446 121.953697,299.337860 
	C105.555992,281.276825 94.837212,260.216248 91.096863,236.003799 
	C89.716217,227.066559 88.873611,217.899902 89.157730,208.881088 
	C89.826447,187.654449 95.854759,167.726715 107.050926,149.689453 
	C112.390343,141.087494 118.355728,132.572083 125.478493,125.460701 
	C133.209793,117.741745 142.172989,111.010109 151.396011,105.089531 
	C165.309158,96.158180 180.853912,90.588951 197.211334,88.204376 
	C214.831116,85.635773 232.445328,86.371544 249.703568,91.386734 
	C269.588135,97.165131 287.590118,106.343269 302.445831,121.014885 
	C307.826752,126.329117 312.837341,132.018326 318.264862,137.799500 
z"/>
</svg>