<?xml version="1.0" encoding="UTF-8"?>
<svg version="1.1" xmlns="http://www.w3.org/2000/svg" width="512" height="512">
<path d="M0 0 C0.67015137 0.20963379 1.34030273 0.41926758 2.03076172 0.63525391 C19.20917588 6.17929366 35.66587008 15.08064895 50 26 C51.30324219 26.97066406 51.30324219 26.97066406 52.6328125 27.9609375 C88.22016952 55.6872067 111.25355706 96.11808585 117.51904297 140.69262695 C118.03385334 144.87279389 118.17698628 148.99854763 118.203125 153.20703125 C118.21013931 153.96587616 118.21715363 154.72472107 118.22438049 155.50656128 C118.24178869 157.94193522 118.24823261 160.37706612 118.25 162.8125 C118.25067474 163.6439151 118.25134949 164.4753302 118.25204468 165.3319397 C118.23637308 177.46776046 117.87072301 189.15506047 115 201 C114.83902832 201.71462402 114.67805664 202.42924805 114.51220703 203.16552734 C110.14384332 222.25456341 102.14044734 242.47065479 90 258 C91.54384028 261.68994791 93.78813943 264.0239451 96.625 266.8125 C97.44226563 267.62332031 98.25953125 268.43414062 99.1015625 269.26953125 C101.22550975 271.27039261 103.36072168 273.17597039 105.57568359 275.0690918 C110.50154958 279.36996861 115.08781005 283.98052622 119.6875 288.625 C121.04041138 289.98359131 121.04041138 289.98359131 122.4206543 291.36962891 C125.76605444 294.72921306 129.10688392 298.09331262 132.4473877 301.45776367 C135.732918 304.76634351 139.02233791 308.07102481 142.3125 311.375 C143.16481201 312.23561035 144.01712402 313.0962207 144.89526367 313.98291016 C149.13719367 318.24204454 153.4473451 322.32523935 158.00500488 326.2432251 C164.4817191 331.94656186 170.49805387 338.19043187 176.61914062 344.26904297 C178.37487964 346.00816307 180.13597505 347.741892 181.90234375 349.47021484 C184.47326427 351.98622157 187.02720705 354.51842134 189.578125 357.0546875 C190.36358704 357.81748016 191.14904907 358.58027283 191.95831299 359.36618042 C200.37624608 367.81676979 203.9057492 377.3184541 204.03515625 389.23828125 C203.62723451 397.70514476 201.94990781 404.85169214 197 411.8125 C187.54435336 418.70724234 177.09733361 420.92798888 165.6640625 419.76171875 C154.4861997 417.82030047 146.90281408 409.33167352 139.24780273 401.58837891 C138.20279882 400.54252703 137.15713042 399.49733875 136.1108551 398.45275879 C133.294806 395.63756447 130.48805242 392.81326939 127.68297076 389.98715258 C124.74158123 387.02690948 121.79159751 384.07525528 118.84254456 381.12265015 C113.26940568 375.54021618 107.70395338 369.95018464 102.14127356 364.35733068 C95.80374581 357.98617968 89.45761754 351.62362477 83.11077964 345.26175046 C70.06431189 332.18399119 57.02859512 319.09556359 44 306 C40.07877794 307.50705675 36.82969728 309.31698296 33.3125 311.625 C11.35906508 325.52115938 -16.06838202 333.95501436 -42.06640625 334.23828125 C-42.81440491 334.24802979 -43.56240356 334.25777832 -44.33306885 334.26782227 C-67.17151441 334.5041289 -88.36499589 332.84641719 -110 325 C-111.22589844 324.55914062 -112.45179688 324.11828125 -113.71484375 323.6640625 C-134.57846476 315.73895148 -153.58035732 304.07921832 -169.53759766 288.42285156 C-171.05938274 286.94222327 -172.61122041 285.49844986 -174.16796875 284.0546875 C-187.54839198 271.43232781 -197.60057552 256.28545727 -206 240 C-206.61359375 238.83726562 -207.2271875 237.67453125 -207.859375 236.4765625 C-216.02388134 220.11142368 -220.84332594 202.12447838 -223 184 C-223.0935376 183.21447754 -223.1870752 182.42895508 -223.28344727 181.61962891 C-228.12853737 137.48502821 -215.28455858 92.95145245 -188 58 C-158.77231064 21.78576326 -118.29311514 -1.91322761 -71.75 -7.375 C-47.46430936 -9.73179276 -23.27744738 -7.31005526 0 0 Z M-143 76 C-143.50660156 76.46148437 -144.01320312 76.92296875 -144.53515625 77.3984375 C-165.66078139 97.12852021 -177.06259299 128.96700969 -178.28125 157.3515625 C-179.22121774 194.33880501 -166.25849993 226.19133942 -141 253 C-140.38898438 253.67546875 -139.77796875 254.3509375 -139.1484375 255.046875 C-119.3791604 276.07802085 -87.77878424 289.97977722 -59 291 C-57.78699219 291.0515625 -56.57398438 291.103125 -55.32421875 291.15625 C-24.76109803 292.04008177 5.37683753 282.76674163 28 262 C29.31018005 260.89308153 30.62237306 259.78853651 31.9375 258.6875 C58.0977029 235.45238308 74.01069466 208.55191249 77 173 C78.89728046 138.60627623 68.57729185 105.97971047 45.6875 80 C44.13429753 78.32466537 42.57140195 76.6582762 41 75 C40.15566406 74.09121094 39.31132812 73.18242188 38.44140625 72.24609375 C17.61569148 50.51359895 -13.48324816 36.59113014 -43.6171875 35.796875 C-82.75327912 35.30357604 -115.45672848 47.71231574 -143 76 Z " fill="#717171" transform="translate(266,50)"/>
</svg>
